<?xml version="1.0" encoding="utf-8"?>
<!-- Generator: Adobe Illustrator 19.2.1, SVG Export Plug-In . SVG Version: 6.00 Build 0)  -->
<svg version="1.1" id="Layer_1" xmlns="http://www.w3.org/2000/svg" xmlns:xlink="http://www.w3.org/1999/xlink" x="0px" y="0px"
	 width="937px" height="439.7px" viewBox="0 0 937 439.7" style="enable-background:new 0 0 937 439.7;" xml:space="preserve">
<style type="text/css">
	.st0{clip-path:url(#SVGID_2_);}
	.st1{fill:none;stroke:#D7D7D7;}
	.st2{fill:#173D6D;}
	.st3{fill:#67813A;}
	.st4{fill:#00A2AB;}
	.st5{fill:#E56A54;}
	.st6{fill:#AE2573;}
	.st7{fill:#C81330;}
	.st8{fill:#E87722;}
	.st9{fill:#72B74D;}
	.st10{fill:#7AAED3;}
	.st11{fill:#EBAA00;}
	.st12{fill:#497B7C;}
	.st13{fill:#00B4E5;}
	.st14{fill:#830065;}
</style>
<title>new map</title>
<desc>Created with Sketch.</desc>
<g>
	<defs>
		<rect id="SVGID_1_" x="1.2" y="0.1" width="935.8" height="439.6"/>
	</defs>
	<clipPath id="SVGID_2_">
		<use xlink:href="#SVGID_1_"  style="overflow:visible;"/>
	</clipPath>
	<g id="Home-Page" class="st0">
		<g id="Home-v3" transform="translate(-648.000000, -1267.000000)">
			<g id="Who-We-Are" transform="translate(0.000000, 1197.000000)">
				
					<g id="new-map" transform="translate(1116.500000, 327.500000) rotate(180.000000) translate(-1116.500000, -327.500000) translate(649.000000, 70.000000)">
					<path id="Stroke-1" class="st1" d="M63.7,100.3c0,0,39-65.5,86.2-76.5"/>
					<path id="Stroke-3" class="st1" d="M201.4,20.9C113.8,63.6,88.8,153.3,88.8,153.3S146.2,44.4,223.5,20.9"/>
					<path id="Stroke-5" class="st1" d="M78.5,326.3c0,0,61.7,158.5,298.4,112.2"/>
					<path id="Stroke-7" class="st1" d="M198.5,124.6C33.4,77.9,0.4,23.1,0.4,23.1"/>
					<path id="Stroke-9" class="st1" d="M391.5,504.1c3.6-2.2-151,18.6-218.2-47.7"/>
					<path id="Stroke-11" class="st1" d="M63.1,400.9C180.5,549,368.9,505.4,391.5,504.1"/>
					<path id="Stroke-13" class="st1" d="M234.2,441.3c0,0,102-3.2,111.6-99.6"/>
					<path id="Stroke-15" class="st1" d="M96.1,249.7c0,0,153.2-7.4,277.6-232.5"/>
					<path id="Stroke-17" class="st1" d="M196.7,123.7c0,0-35-83.7-100.6-116.1"/>
					<path id="Stroke-19" class="st1" d="M196.5,119.8c0,0-1.7-65.1,60.2-119.6"/>
					<path id="Stroke-21" class="st1" d="M270.1,320.6c-54.7,49.3-119.9,44.6-119.9,44.6"/>
					<path id="Stroke-23" class="st1" d="M268.5,322.3c0,0-32,74.2,44.5,90.9"/>
					<path id="Stroke-25" class="st1" d="M162.4,5.4c24.3,157.9-70,248-70,248s47.1,206.2,300.5,248.5"/>
					<path id="Stroke-27" class="st1" d="M471.7,39.3c0,0,4.2-3.2,2.2-2.9c-36.1,5.2-50.8,47.8-50.8,47.8"/>
					<path id="Stroke-29" class="st1" d="M449.5,181.9c-250.4,82.4-356.1-23.6-356.1-23.6"/>
					<path id="Stroke-31" class="st1" d="M91,155.5c0,0,184,66.2,329.8-71.4"/>
					<path id="Stroke-33" class="st1" d="M396.4,505.2c0.8,2.8-33.6-134.6,39.4-242.3l3.7-2.8"/>
					<path id="Stroke-35" class="st1" d="M786.1,325.5C667.6,488.9,482,479.1,482,479.1"/>
					<path id="Stroke-37" class="st1" d="M786.4,322.6c-18.3,88.8-85,128.4-85,128.4"/>
					<path id="Stroke-39" class="st1" d="M879.5,182.4c2.9,114.9-69.5,172-69.5,172"/>
					<path id="Stroke-41" class="st1" d="M861.2,35.2c0,0,55.2,65,25.1,134.8"/>
					<path id="Stroke-43" class="st1" d="M857.6,54.7c0,0,33.9,78,19.9,116.3"/>
					<path id="Stroke-45" class="st1" d="M544.6,434.4c0,0,106-46.4,134-173.7"/>
					<path id="Stroke-47" class="st1" d="M800.6,47.8c0,0,74.7,148.9-8.5,270.3"/>
					<path id="Stroke-49" class="st1" d="M815.6,193.1c0,0,0,88.3-31.7,122.9c7.9,13.4,66.9-13.8,96.5-135.4"/>
					<path id="Stroke-51" class="st1" d="M647.7,140.1c0,0,41.2,38.3,25.8,109.6"/>
					<path id="Stroke-53" class="st1" d="M683,247.5c0,0,23.6-46.4,10.3-79.5"/>
					<path id="Stroke-55" class="st1" d="M726.5,75.3c0,0,5.9,114.1-38.3,174.4"/>
					<path id="Stroke-57" class="st1" d="M789.1,51.8c0,0-50.8,164.1-104.6,199.4l-2.8,2l7.2,4.6c0,0,108.5,9.4,183.6-75.3"/>
					<path id="Stroke-59" class="st1" d="M539.4,167.3c25.7,16.9,132.6,91.2,132.6,91.2"/>
					<path id="Stroke-61" class="st1" d="M685.3,260c0,0,51.5,15,100.5,64.1"/>
					<path id="Stroke-63" class="st1" d="M448.1,176.9c0,0-42.6-35.5-23.5-91.4"/>
					<path id="Stroke-65" class="st1" d="M448.9,173.2c0,0-28-82.4,22.1-138.3"/>
					<path id="Stroke-67" class="st1" d="M574.8,230.6c7.4-10.3,0.7,128.8,0.7,128.8l-0.7,4.4c0,0-130.4-150.9-99.4-321.6"/>
					<path id="Stroke-69" class="st1" d="M688.9,332.1c0,0-11.8-53.1-6.6-74.3"/>
					<path id="Stroke-71" class="st1" d="M934.8,85.1c-61.1,155.3-242.2,247-242.2,247"/>
					<path id="Stroke-73" class="st1" d="M782.6,323.2c0,0,7.9-168.4-135.7-188.3"/>
					<path id="Stroke-75" class="st1" d="M815.9,190.4c-105.3,30.9-272.7-20.1-272.7-20.1l0.7-7.4"/>
					<path id="Stroke-77" class="st1" d="M653.6,129c0,0,53.8-16.2,67.7-50.8"/>
					<path id="Stroke-79" class="st1" d="M792.6,48.3C689.5-9.2,600.6,34.8,600.6,34.8"/>
					<path id="Stroke-81" class="st1" d="M842.8,50.3C809.7,70.9,725,79.7,725,79.7l-8.1-1.5"/>
					<path id="Stroke-83" class="st1" d="M803.1,43.7c0,0,33.9-11.8,57.4-11"/>
					<path id="Stroke-85" class="st1" d="M696.3,165.8C840.4,191.6,846.5,57.7,846.5,57.7"/>
					<path id="Stroke-87" class="st1" d="M691.1,335.1c128.1-8.1,185.6-152.3,185.6-152.3C693.8,215.2,609.2,28.6,596.1,34.1
						l7.4,0.7c0,0-6.6,15.5-49.3,40.5"/>
					<path id="Stroke-89" class="st1" d="M423.8,82.7c0,0,110.8-72.1,290.1-8.1"/>
					<path id="Stroke-91" class="st1" d="M480.5,37c0,0,37.5,34.3,73.6,40.9"/>
					<path id="Stroke-93" class="st1" d="M64.5,110.6c0,0,218.5,139.7,205.5,141.3c-83.2,10.3-183.4-92.6-183.4-92.6"/>
					<path id="Stroke-95" class="st1" d="M253.2,57.5c0,0-10.6,73.7,9.3,129.7"/>
					<path id="Stroke-97" class="st1" d="M266.5,7.6c0,0-60.6,162.6,7.1,238.4"/>
					<path id="Stroke-99" class="st1" d="M244.9,20.1c0,0-127.4,205.3-45.7,360.6c0,0,88.4-110.4,2.2-258.3"/>
					<path id="Stroke-101" class="st1" d="M91,151.8c0,0,173.1-41.2,341,111.9"/>
					<path id="Stroke-103" class="st1" d="M596.9,31.2c-55.9,59.3-118.6,0.7-118.6,0.7"/>
					<path id="Stroke-105" class="st1" d="M205.4,117.1c0,0,76.3-84.5,261.2-79.4"/>
					<path id="Stroke-107" class="st1" d="M303.1,12c0,0,44.4,43.9,120.9,69.7"/>
					<path id="Stroke-109" class="st1" d="M423.1,84.2c0,0-118.5,94.9-78.8,246.5"/>
					<path id="Stroke-111" class="st1" d="M275.8,7.6c0,0,237.5,38.5,263.7,161.9c18,85-102.4,95.8-102.4,95.8l0.7-8.2"/>
					<path id="Stroke-113" class="st1" d="M672,258.6c-76.6,112.6-197.7,138.1-197.7,138.1"/>
					<path id="Stroke-115" class="st1" d="M681.6,331.4c-109-81.7-78.1-296.6-78.1-296.6"/>
					<path id="Stroke-117" class="st1" d="M643.3,140.8c0,0-54.7,29-67.2,89.4"/>
					<path id="Stroke-119" class="st1" d="M541.5,161.6c0,0,75.2-116.5,248.3-114.3c27.6,0.4-58.2,23.5-58.2,23.5"/>
					<path id="Stroke-121" class="st1" d="M539.4,165.6c0,0,25.9-50.6,12.6-84.4"/>
					<path id="Stroke-123" class="st1" d="M201.1,384.6c0,0,274.3-184.2,478.2-47.3"/>
					<path id="Stroke-125" class="st1" d="M657.3,133.5c0,0,201.8-14.7,246-96.4"/>
					<path id="Stroke-127" class="st1" d="M840.6,58.4C696.3,157,423.8,82.7,423.8,82.7s112,79.5,115,82.4"/>
					<path id="Stroke-129" class="st1" d="M539.4,431.5c0,0,90.8-158.2,247-108.9"/>
					<path id="Stroke-131" class="st1" d="M585.8,357.9c0,0,101.6-125.1,62.6-212.7"/>
					<path id="Stroke-133" class="st1" d="M543.1,173.2c0,0,45.7,180.3-78.8,223c0,0,95.7-100.1-10.3-212.7"/>
					<path id="Stroke-135" class="st1" d="M352.4,329.2c0,0,83.8-33.2,147.2-20.7"/>
					<path id="Stroke-137" class="st1" d="M464.4,394.3c0,0-9.9,36.4-18.2,54.5c-19.3,42.1-47,57.6-47,57.6"/>
					<path id="Stroke-139" class="st1" d="M451.1,181.3C319.3,152.6,269.2,1.7,269.2,1.7"/>
					<path id="Stroke-141" class="st1" d="M476.1,26.7c0,0,121.5-5.9,170.1,103"/>
					<path id="Stroke-143" class="st1" d="M556.4,79.7c0,0,78.8-2.1,146.1,23.9c58.5,22.6,115.3,86.5,115.3,86.5"/>
					<path id="Stroke-145" class="st1" d="M795.7,46.6c0,0,1.3,133-9.6,274.5"/>
					<path id="Stroke-147" class="st1" d="M542.4,442.5c140.7-13.2,142.9-96.4,142.9-96.4"/>
					<path id="Stroke-149" class="st1" d="M498.3,309.7c1.5-2.2,129.7-14.3,149.5-173.2"/>
					<path id="Stroke-151" class="st1" d="M461.1,400.3c0,0,236.2,8.2,325.3-77.7"/>
					<path id="Stroke-153" class="st1" d="M437.8,264.3c0,0-3.2,92.9,100.6,178.2"/>
					<path id="Stroke-155" class="st1" d="M687.3,341.3c0,0,56.6,6.2,97.9-21"/>
					<path id="Stroke-157" class="st1" d="M484.2,477.5C443.8,383.8,353.9,341,353.9,341s42.7,54.5,23.3,89.7"/>
					<path id="Stroke-159" class="st1" d="M376.4,431.3c0,0,39.1,52.7,105.6,47.8"/>
					<path id="Stroke-161" class="st1" d="M266.9,189.7c0,0,52.4,83.7,167.2,75.6"/>
					<path id="Stroke-163" class="st1" d="M262.6,189.3c0,0,51.7,53.3,11.2,126.2"/>
					<path id="Stroke-165" class="st1" d="M269.9,320.4c-10.3-46.4,5.9-61.8,5.9-61.8l3.4-5c0,0,153.4,34.7,184.3,143.6"/>
					<path id="Stroke-167" class="st1" d="M269.9,251.9c0,0-87.6,85.4-174.5,3.7c0,0,29.5,70.7,168.6,67c0,0-171.6-44.2-203.2-211.2
						"/>
					<path id="Stroke-169" class="st1" d="M280.2,246c0,0,84.8-189.9,253.3-81.7"/>
					<path id="Stroke-171" class="st1" d="M596.1,34.1c0,0-51.7,54.7-20.6,189.9c12.5,54.5,57.7,83.4,110,113.5"/>
					<path id="Stroke-173" class="st1" d="M468.6,33.1c0,0-165.6-51.3-200.9,150.4"/>
					<path id="Stroke-175" class="st1" d="M439.3,263c20.4-34.6,17.7-78.7,17.7-78.7"/>
					<path id="Stroke-177" class="st1" d="M462.9,185.7c0,0,43.6,54.3,112.8,45.5c0,0-22.9-23.8-31-63.5"/>
					<path id="Stroke-179" class="st1" d="M455.2,177.2c0,0,20.9-81.3,98.3-99.7"/>
					<path id="Stroke-181" class="st1" d="M448.5,185.2c0,0-97.5,49.8-100.5,143.3"/>
					<path id="Stroke-183" class="st1" d="M203.6,388.1c0,0,44.2,81.7,167.9,50.8"/>
					<path id="Stroke-185" class="st1" d="M392.9,501.9c0,0-121.5-104.8-120-188c0,0,85,27.8,102.2,119.6"/>
					<path id="Stroke-187" class="st1" d="M463.5,393.4c0,0-110.1,62-191.9-65.8"/>
					<path id="Stroke-189" class="st1" d="M385.5,431.5c0,0,54.5,9.6,78.8-35.3"/>
					<path id="Stroke-191" class="st1" d="M264,189.4c0,0,54.6-12.5,104.1-46.4"/>
					<path id="Stroke-193" class="st1" d="M279.5,257.8c0,0,7.4,70.6,63.3,76.5"/>
					<path id="Stroke-195" class="st1" d="M205.9,246c0,0,9.7,62,64.2,74.5"/>
					<path id="Stroke-197" class="st1" d="M208.1,237.2c0,0,10.3-37.5,50.8-44.2"/>
					<path id="Stroke-199" class="st1" d="M350.9,337c0,0,2.2,128.1,44.2,170.4"/>
					<path id="Stroke-201" class="st1" d="M803.1,47.2c0,0,64.8,106.6,67.6,123.5"/>
					<path id="Fill-203" class="st2" d="M257.2,189.4c0,3.8,3,6.8,6.8,6.8c3.8,0,6.8-3,6.8-6.8c0-3.8-3-6.8-6.8-6.8
						C260.3,182.6,257.2,185.6,257.2,189.4"/>
					<path id="Fill-205" class="st2" d="M144.4,364.7c0,3.8,3,6.8,6.8,6.8c3.8,0,6.8-3,6.8-6.8c0-3.8-3-6.8-6.8-6.8
						C147.4,357.9,144.4,360.9,144.4,364.7"/>
					<path id="Fill-207" class="st3" d="M185.7,122.4c0,6.7,5.5,12.2,12.2,12.2c6.7,0,12.2-5.5,12.2-12.2c0-6.7-5.5-12.2-12.2-12.2
						C191.1,110.2,185.7,115.7,185.7,122.4"/>
					<path id="Fill-209" class="st4" d="M39,65.4c0,6.7,5.5,12.2,12.2,12.2c6.7,0,12.2-5.5,12.2-12.2c0-6.7-5.5-12.2-12.2-12.2
						C44.5,53.2,39,58.7,39,65.4"/>
					<path id="Fill-211" class="st5" d="M256.6,321c0,6.7,5.5,12.2,12.2,12.2c6.7,0,12.2-5.5,12.2-12.2c0-6.7-5.5-12.2-12.2-12.2
						C262.1,308.8,256.6,314.2,256.6,321"/>
					<path id="Fill-213" class="st6" d="M84.6,253.5c0,4.1,3.3,7.5,7.5,7.5c4.1,0,7.5-3.3,7.5-7.5c0-4.1-3.3-7.5-7.5-7.5
						C87.9,246,84.6,249.3,84.6,253.5"/>
					<path id="Fill-215" class="st3" d="M71,326.3c0,4.1,3.3,7.5,7.5,7.5c4.1,0,7.5-3.3,7.5-7.5c0-4.1-3.3-7.5-7.5-7.5
						C74.3,318.9,71,322.2,71,326.3"/>
					<path id="Fill-217" class="st5" d="M56.4,402.1c0.7,3.7,4.2,6.1,7.9,5.4c3.7-0.7,6.1-4.2,5.4-7.9c-0.7-3.7-4.2-6.1-7.9-5.4
						C58.2,394.9,55.7,398.4,56.4,402.1"/>
					<path id="Fill-219" class="st7" d="M387.9,504.6c0,5.7,4.6,10.3,10.3,10.3c5.7,0,10.3-4.6,10.3-10.3c0-5.7-4.6-10.3-10.3-10.3
						C392.5,494.3,387.9,499,387.9,504.6"/>
					<path id="Fill-221" class="st2" d="M367.1,433.8c0,5.7,4.6,10.3,10.3,10.3c5.7,0,10.3-4.6,10.3-10.3c0-5.7-4.6-10.3-10.3-10.3
						C371.8,423.5,367.1,428.1,367.1,433.8"/>
					<path id="Fill-223" class="st7" d="M264.8,250.5c0,5.7,4.6,10.3,10.3,10.3c5.7,0,10.3-4.6,10.3-10.3c0-5.7-4.6-10.3-10.3-10.3
						C269.4,240.2,264.8,244.8,264.8,250.5"/>
					<path id="Fill-225" class="st3" d="M338.4,335.1c0,5.7,4.6,10.3,10.3,10.3c5.7,0,10.3-4.6,10.3-10.3c0-5.7-4.6-10.3-10.3-10.3
						C343,324.8,338.4,329.4,338.4,335.1"/>
					<path id="Fill-227" class="st3" d="M474.5,479.1c0,4.1,3.3,7.5,7.5,7.5c4.1,0,7.5-3.3,7.5-7.5c0-4.1-3.3-7.5-7.5-7.5
						C477.9,471.7,474.5,475,474.5,479.1"/>
					<path id="Fill-229" class="st8" d="M429.5,265.3c0,4.1,3.3,7.5,7.5,7.5c4.1,0,7.5-3.3,7.5-7.5c0-4.1-3.3-7.5-7.5-7.5
						C432.8,257.8,429.5,261.1,429.5,265.3"/>
					<path id="Fill-231" class="st9" d="M491.9,308.2c0,4.1,3.3,7.5,7.5,7.5c4.1,0,7.5-3.3,7.5-7.5c0-4.1-3.3-7.5-7.5-7.5
						C495.2,300.8,491.9,304.1,491.9,308.2"/>
					<path id="Fill-233" class="st5" d="M567.5,229.8c0,4.1,3.3,7.5,7.5,7.5c4.1,0,7.5-3.3,7.5-7.5c0-4.1-3.3-7.5-7.5-7.5
						C570.8,222.4,567.5,225.7,567.5,229.8"/>
					<path id="Fill-235" class="st10" d="M358.9,142.9c0,6.5,5.3,11.7,11.7,11.7c6.5,0,11.7-5.3,11.7-11.7c0-6.5-5.3-11.7-11.7-11.7
						C364.2,131.2,358.9,136.4,358.9,142.9"/>
					<path id="Fill-237" class="st11" d="M569.4,364.9c0,5.7,4.6,10.3,10.3,10.3s10.3-4.6,10.3-10.3c0-5.7-4.6-10.3-10.3-10.3
						S569.4,359.2,569.4,364.9"/>
					<path id="Fill-239" class="st9" d="M675.2,337.5c0,5.7,4.6,10.3,10.3,10.3c5.7,0,10.3-4.6,10.3-10.3c0-5.7-4.6-10.3-10.3-10.3
						C679.8,327.2,675.2,331.8,675.2,337.5"/>
					<path id="Fill-241" class="st7" d="M637.4,135.4c0,5.7,4.6,10.3,10.3,10.3s10.3-4.6,10.3-10.3c0-5.7-4.6-10.3-10.3-10.3
						S637.4,129.7,637.4,135.4"/>
					<path id="Fill-243" class="st8" d="M710.2,74c0,5.7,4.6,10.3,10.3,10.3s10.3-4.6,10.3-10.3c0-5.7-4.6-10.3-10.3-10.3
						S710.2,68.3,710.2,74"/>
					<path id="Fill-245" class="st12" d="M526.8,439.5c0,5.7,4.6,10.3,10.3,10.3c5.7,0,10.3-4.6,10.3-10.3c0-5.7-4.6-10.3-10.3-10.3
						C531.5,429.2,526.8,433.8,526.8,439.5"/>
					<path id="Fill-247" class="st12" d="M784.8,45.7c0,5.7,4.6,10.3,10.3,10.3s10.3-4.6,10.3-10.3c0-5.7-4.6-10.3-10.3-10.3
						S784.8,40,784.8,45.7"/>
					<path id="Fill-249" class="st2" d="M681.8,166.6c0,5.7,4.6,10.3,10.3,10.3c5.7,0,10.3-4.6,10.3-10.3c0-5.7-4.6-10.3-10.3-10.3
						C686.4,156.3,681.8,160.9,681.8,166.6"/>
					<path id="Fill-251" class="st11" d="M532.5,166.6c0,4.1,3.3,7.5,7.5,7.5c4.1,0,7.5-3.3,7.5-7.5c0-4.1-3.3-7.5-7.5-7.5
						C535.9,159.1,532.5,162.5,532.5,166.6"/>
					<path id="Fill-253" class="st13" d="M416.3,82.5c0,4.1,3.3,7.5,7.5,7.5c4.1,0,7.5-3.3,7.5-7.5c0-4.1-3.3-7.5-7.5-7.5
						C419.6,75.1,416.3,78.4,416.3,82.5"/>
					<path id="Fill-255" class="st14" d="M198.9,240.2c0,4.1,3.3,7.5,7.5,7.5c4.1,0,7.5-3.3,7.5-7.5c0-4.1-3.3-7.5-7.5-7.5
						C202.3,232.8,198.9,236.1,198.9,240.2"/>
					<path id="Fill-257" class="st10" d="M194.2,383.8c0,4.1,3.3,7.5,7.5,7.5c4.1,0,7.5-3.3,7.5-7.5c0-4.1-3.3-7.5-7.5-7.5
						C197.6,376.3,194.2,379.6,194.2,383.8"/>
					<path id="Fill-259" class="st4" d="M80.8,156.2c0,4.1,3.3,7.5,7.5,7.5c4.1,0,7.5-3.3,7.5-7.5c0-4.1-3.3-7.5-7.5-7.5
						C84.2,148.7,80.8,152.1,80.8,156.2"/>
					<path id="Fill-261" class="st5" d="M54.4,107.1c0,4.1,3.3,7.5,7.5,7.5c4.1,0,7.5-3.3,7.5-7.5c0-4.1-3.3-7.5-7.5-7.5
						C57.7,99.6,54.4,103,54.4,107.1"/>
					<path id="Fill-263" class="st5" d="M593,32.5c0,4.1,3.3,7.5,7.5,7.5c4.1,0,7.5-3.3,7.5-7.5c0-4.1-3.3-7.5-7.5-7.5
						C596.3,25,593,28.4,593,32.5"/>
					<path id="Fill-265" class="st4" d="M453.1,397c0,6.7,5.5,12.2,12.2,12.2c6.7,0,12.2-5.5,12.2-12.2c0-6.7-5.5-12.2-12.2-12.2
						C458.6,384.8,453.1,390.3,453.1,397"/>
					<path id="Fill-267" class="st12" d="M667.6,255.4c0,6.7,5.5,12.2,12.2,12.2s12.2-5.5,12.2-12.2c0-6.7-5.5-12.2-12.2-12.2
						S667.6,248.6,667.6,255.4"/>
					<path id="Fill-269" class="st6" d="M441.8,179.8c0,6.7,5.5,12.2,12.2,12.2s12.2-5.5,12.2-12.2c0-6.7-5.5-12.2-12.2-12.2
						S441.8,173.1,441.8,179.8"/>
					<path id="Fill-271" class="st14" d="M459.7,35c0,6.7,5.5,12.2,12.2,12.2c6.7,0,12.2-5.5,12.2-12.2c0-6.7-5.5-12.2-12.2-12.2
						C465.2,22.8,459.7,28.3,459.7,35"/>
					<path id="Fill-273" class="st7" d="M838.2,54.5c0,6.7,5.5,12.2,12.2,12.2c6.7,0,12.2-5.5,12.2-12.2c0-6.7-5.5-12.2-12.2-12.2
						C843.7,42.3,838.2,47.7,838.2,54.5"/>
					<path id="Fill-275" class="st13" d="M865.4,177.1c0,6.7,5.5,12.2,12.2,12.2c6.7,0,12.2-5.5,12.2-12.2c0-6.7-5.5-12.2-12.2-12.2
						C870.8,164.9,865.4,170.4,865.4,177.1"/>
					<path id="Fill-277" class="st6" d="M808.7,187.9c0,3.8,3.1,6.9,6.9,6.9c3.8,0,6.9-3.1,6.9-6.9c0-3.8-3.1-6.9-6.9-6.9
						C811.8,181,808.7,184.1,808.7,187.9"/>
					<path id="Fill-279" class="st14" d="M779.2,320.9c0,4.2,3.4,7.7,7.7,7.7c4.2,0,7.7-3.4,7.7-7.7c0-4.2-3.4-7.7-7.7-7.7
						C782.6,313.3,779.2,316.7,779.2,320.9"/>
					<path id="Fill-281" class="st9" d="M305.8,411.5c0,4.2,3.4,7.7,7.7,7.7c4.2,0,7.7-3.4,7.7-7.7c0-4.2-3.4-7.7-7.7-7.7
						C309.2,403.8,305.8,407.2,305.8,411.5"/>
					<path id="Fill-283" class="st3" d="M547.6,77.9c0,3.6,2.9,6.5,6.5,6.5c3.6,0,6.5-2.9,6.5-6.5c0-3.6-2.9-6.5-6.5-6.5
						C550.5,71.4,547.6,74.3,547.6,77.9"/>
					<path id="Fill-285" class="st5" d="M697.3,450.9c0,2.3,1.8,4.1,4.1,4.1c2.3,0,4.1-1.8,4.1-4.1c0-2.3-1.8-4.1-4.1-4.1
						C699.2,446.8,697.3,448.6,697.3,450.9"/>
					<path id="Fill-287" class="st11" d="M169.3,456.9c0.3,2.2,2.3,3.8,4.5,3.6c2.2-0.3,3.8-2.3,3.6-4.5c-0.3-2.2-2.3-3.8-4.5-3.6
						C170.6,452.6,169,454.6,169.3,456.9"/>
					<path id="Fill-289" class="st3" d="M227,441.4c0,3.1,2.5,5.6,5.6,5.6c3.1,0,5.6-2.5,5.6-5.6c0-3.1-2.5-5.6-5.6-5.6
						C229.5,435.7,227,438.3,227,441.4"/>
					<path id="Fill-291" class="st4" d="M808,351.7c0,2.3,1.8,4.1,4.1,4.1c2.3,0,4.1-1.8,4.1-4.1c0-2.3-1.8-4.1-4.1-4.1
						C809.9,347.6,808,349.5,808,351.7"/>
					<path id="Fill-293" class="st9" d="M856.4,32.6c0,2.3,1.8,4.1,4.1,4.1c2.3,0,4.1-1.8,4.1-4.1s-1.8-4.1-4.1-4.1
						C858.3,28.6,856.4,30.4,856.4,32.6"/>
					<path id="Fill-295" class="st11" d="M241.9,54.7c0,5.7,4.6,10.3,10.3,10.3s10.3-4.6,10.3-10.3c0-5.7-4.6-10.3-10.3-10.3
						S241.9,49,241.9,54.7"/>
					<path id="Fill-297" class="st8" d="M143.7,54.5c0,4.1,3.3,7.5,7.5,7.5c4.1,0,7.5-3.3,7.5-7.5s-3.3-7.5-7.5-7.5
						C147.1,47,143.7,50.3,143.7,54.5"/>
					<path id="Fill-299" class="st12" d="M303.7,81.2c0,4.1,3.3,7.5,7.5,7.5c4.1,0,7.5-3.3,7.5-7.5c0-4.1-3.3-7.5-7.5-7.5
						C307,73.7,303.7,77.1,303.7,81.2"/>
				</g>
			</g>
		</g>
	</g>
</g>
</svg>
